<svg width="70" height="70" viewBox="0 0 70 70" fill="none" xmlns="http://www.w3.org/2000/svg">
<rect width="70" height="70" rx="20" fill="#050315"/>
<path d="M19.5333 26.9975L35 34.9984M35 34.9984L50.4667 26.9975M35 34.9984V51M51 28.5977C50.9994 28.0365 50.8348 27.4853 50.5227 26.9994C50.2107 26.5135 49.7622 26.11 49.2222 25.8294L36.7778 19.4288C36.2373 19.1479 35.6241 19 35 19C34.3759 19 33.7627 19.1479 33.2222 19.4288L20.7778 25.8294C20.2378 26.11 19.7893 26.5135 19.4773 26.9994C19.1652 27.4853 19.0006 28.0365 19 28.5977V41.399C19.0006 41.9602 19.1652 42.5114 19.4773 42.9973C19.7893 43.4832 20.2378 43.8867 20.7778 44.1673L33.2222 50.568C33.7627 50.8488 34.3759 50.9967 35 50.9967C35.6241 50.9967 36.2373 50.8488 36.7778 50.568L49.2222 44.1673C49.7622 43.8867 50.2107 43.4832 50.5227 42.9973C50.8348 42.5114 50.9994 41.9602 51 41.399V28.5977Z" stroke="#FBFBFE" stroke-width="3" stroke-linecap="round" stroke-linejoin="round"/>
</svg>
